<?xml version="1.0" standalone="no"?>
<!DOCTYPE svg PUBLIC "-//W3C//DTD SVG 20010904//EN"
 "http://www.w3.org/TR/2001/REC-SVG-20010904/DTD/svg10.dtd">
<svg version="1.0" xmlns="http://www.w3.org/2000/svg"
 width="512.000000pt" height="512.000000pt" viewBox="0 0 512.000000 512.000000"
 preserveAspectRatio="xMidYMid meet">
<metadata>
Created by potrace 1.14, written by Peter Selinger 2001-2017
</metadata>
<g transform="translate(0.000000,512.000000) scale(0.100000,-0.100000)"
fill="#000000" stroke="none">
<path d="M2345 5094 c-335 -35 -623 -116 -905 -255 -755 -372 -1266 -1074
-1397 -1919 -25 -162 -25 -558 0 -720 101 -651 428 -1222 932 -1625 345 -277
771 -462 1225 -532 162 -25 558 -25 720 0 454 70 880 255 1225 532 504 403
831 974 932 1625 25 162 25 558 0 720 -131 845 -642 1547 -1397 1919 -234 116
-491 196 -750 236 -101 16 -494 28 -585 19z m-614 -589 c75 -21 130 -54 196
-118 245 -235 435 -751 493 -1336 6 -58 11 -105 13 -107 1 -1 68 -4 150 -6
129 -4 147 -2 147 11 0 39 32 287 51 391 75 426 220 783 411 1012 123 147 344
211 495 143 158 -71 241 -241 229 -470 -17 -341 -196 -757 -512 -1192 -41 -56
-74 -105 -74 -110 0 -4 25 -25 55 -47 135 -97 272 -263 345 -419 61 -130 81
-214 87 -363 8 -195 -22 -340 -103 -490 -146 -272 -401 -479 -712 -579 -629
-202 -1333 57 -1600 591 -78 155 -107 293 -99 477 8 196 62 354 177 521 58 83
208 233 287 286 29 19 51 40 48 47 -2 6 -29 45 -59 86 -239 324 -423 698 -487
992 -58 264 -25 464 96 594 93 100 217 129 366 86z"/>
<path d="M1661 3964 c-92 -117 30 -470 281 -814 l18 -24 56 18 57 18 -6 78
c-23 294 -163 659 -280 730 -47 29 -101 26 -126 -6z"/>
<path d="M3374 3971 c-121 -75 -241 -377 -283 -716 -11 -90 -10 -92 58 -115
51 -17 52 -16 142 119 83 123 166 290 205 411 36 113 40 244 8 287 -27 36 -85
42 -130 14z"/>
<path d="M2024 2056 c-47 -21 -74 -61 -74 -113 0 -97 115 -150 189 -87 72 60
56 164 -30 198 -47 19 -46 19 -85 2z"/>
<path d="M3004 2051 c-53 -24 -81 -84 -64 -137 17 -51 63 -84 117 -84 38 0 50
5 79 34 29 29 34 41 34 79 0 53 -27 93 -76 113 -41 17 -40 17 -90 -5z"/>
<path d="M2455 1805 c-5 -2 -27 -6 -49 -10 -54 -9 -86 -44 -86 -93 0 -55 67
-155 131 -195 47 -29 48 -30 36 -60 -17 -41 -55 -67 -108 -74 -52 -7 -79 -27
-79 -59 0 -72 134 -74 222 -4 l38 31 38 -31 c88 -70 222 -68 222 4 0 32 -27
52 -78 59 -54 7 -90 30 -107 70 -13 30 -12 31 29 57 78 50 139 146 134 212 -4
51 -32 74 -107 88 -50 9 -213 13 -236 5z m222 -120 c9 -6 -62 -85 -86 -95 -40
-16 -62 -7 -113 48 l-43 47 55 6 c46 4 179 1 187 -6z"/>
</g>
</svg>
